{"title":"Tyler Perry's Hell Hath No Fury Like A Woman Scorned 2014 720p W","uid":11625982,"size":1384942315,"categoryP":"video","categoryS":"hd___movies","magnet":"?xt=urn:btih:82c3c35e228a245c3dc4d0670605d9e2724dee38&amp;dn=Tyler+Perry%27s+Hell+Hath+No+Fury+Like+A+Woman+Scorned+2014+720p+W&amp;tr=udp%3A%2F%2Ftracker.openbittorrent.com%3A80&amp;tr=udp%3A%2F%2Fopen.demonii.com%3A1337&amp;tr=udp%3A%2F%2Ftracker.coppersurfer.tk%3A6969&amp;tr=udp%3A%2F%2Fexodus.desync.com%3A6969","seeders":12,"leechers":3,"uploader":"shawnmurthy","files":-1,"time":1417621068,"description":"Tyler Perry's Hell Hath No Fury Like A Woman Scorned 2014 720p WEBRip x264 Pimp4003\n\nDirector: Darryl Epp\nWriter: Darryl Epp\nStars: Alex DeCourville, Heather Jane Farr, Patricia Valestin | See full cast and crew Â»\n\nENJOY\n\nPIMP4003\n\nVideo\nID                                       : 1\nFormat                                   : MPEG-4 Visual\nFormat profile                           : Simple@L3\nFormat settings, BVOP                    : No\nFormat settings, QPel                    : No\nFormat settings, GMC                     : No warppoints\nFormat settings, Matrix                  : Default (H.263)\nCodec ID                                 : 20\nDuration                                 : 1h 12mn\nBit rate                                 : 2 414 Kbps\nWidth                                    : 1 280 pixels\nHeight                                   : 536 pixels\nDisplay aspect ratio                     : 2.40:1\nFrame rate mode                          : Variable\nFrame rate                               : 59.940 fps\nMinimum frame rate                       : 59.916 fps\nMaximum frame rate                       : 60.157 fps\nColor space                              : YUV\nChroma subsampling                       : 4:2:0\nBit depth                                : 8 bits\nScan type                                : Progressive\nCompression mode                         : Lossy\nBits/(Pixel*Frame)                       : 0.059\nStream size                              : 1.22 GiB (95%)\nWriting library                          : ZJMedia MPEG Encoder\n\nAudio\nID                                       : 2\nFormat                                   : AAC\nFormat/Info                              : Advanced Audio Codec\nFormat profile                           : LC\nCodec ID                                 : 40\nDuration                                 : 1h 12mn\nBit rate mode                            : Variable\nBit rate                                 : 128 Kbps\nChannel(s)                               : 2 channels\nChannel positions                        : Front: L R\nSampling rate                            : 48.0 KHz\nCompression mode                         : Lossy\nStream size                              : 66.3 MiB (5%)","torrent":{"xt":"urn:btih:82c3c35e228a245c3dc4d0670605d9e2724dee38","amp;dn":"Tyler+Perry%27s+Hell+Hath+No+Fury+Like+A+Woman+Scorned+2014+720p+W","amp;tr":["udp%3A%2F%2Ftracker.openbittorrent.com%3A80","udp%3A%2F%2Fopen.demonii.com%3A1337","udp%3A%2F%2Ftracker.coppersurfer.tk%3A6969","udp%3A%2F%2Fexodus.desync.com%3A6969"],"infoHash":"82c3c35e228a245c3dc4d0670605d9e2724dee38","infoHashBuffer":{"type":"Buffer","data":[130,195,195,94,34,138,36,92,61,196,208,103,6,5,217,226,114,77,238,56]},"announce":[],"urlList":[]}}